<svg xmlns="http://www.w3.org/2000/svg" viewBox="0 0 600 400">
  <defs>
    <linearGradient id="bgGrad" x1="0%" y1="0%" x2="100%" y2="100%">
      <stop offset="0%" style="stop-color:#f8fafc"/>
      <stop offset="100%" style="stop-color:#e2e8f0"/>
    </linearGradient>
  </defs>
  <rect width="600" height="400" fill="url(#bgGrad)"/>
  
  <!-- Book -->
  <rect x="100" y="150" width="120" height="160" rx="5" fill="#2563eb"/>
  <rect x="110" y="160" width="100" height="140" fill="#1e40af"/>
  <rect x="120" y="170" width="80" height="100" fill="#ffffff" opacity="0.9"/>
  <text x="160" y="220" font-family="Arial" font-size="14" fill="#2563eb" text-anchor="middle">EDU</text>
  
  <!-- Laptop -->
  <rect x="300" y="100" width="200" height="130" rx="10" fill="#374151"/>
  <rect x="310" y="110" width="180" height="100" rx="5" fill="#1f2937"/>
  <rect x="340" y="230" width="120" height="10" rx="3" fill="#374151"/>
  
  <!-- Grad cap -->
  <ellipse cx="480" cy="180" rx="50" ry="15" fill="#f59e0b"/>
  <rect x="430" y="180" width="100" height="30" fill="#f59e0b"/>
  <line x1="430" y1="195" x2="530" y2="195" stroke="#d97706" stroke-width="3"/>
  <rect x="470" y="200" width="20" height="40" fill="#f59e0b"/>
  
  <!-- Stars -->
  <polygon points="80,80 85,95 100,95 88,105 92,120 80,110 68,120 72,105 60,95 75,95" fill="#f59e0b"/>
  <polygon points="550,60 555,75 570,75 558,85 562,100 550,90 538,100 542,85 530,75 545,75" fill="#f59e0b" opacity="0.7"/>
  <polygon points="200,50 203,60 213,60 205,67 208,77 200,70 192,77 195,67 187,60 197,60" fill="#f59e0b" opacity="0.5"/>
  
  <!-- Decorative circles -->
  <circle cx="50" cy="350" r="30" fill="#2563eb" opacity="0.1"/>
  <circle cx="570" cy="300" r="40" fill="#f59e0b" opacity="0.1"/>
</svg>
